<svg width="168" height="19" viewBox="0 0 168 19" fill="none" xmlns="http://www.w3.org/2000/svg">
<path d="M8.36 14.74C6.93333 14.74 5.64 14.4333 4.48 13.82C3.33333 13.1933 2.42667 12.3333 1.76 11.24C1.10667 10.1333 0.78 8.88667 0.78 7.5C0.78 6.11333 1.10667 4.87333 1.76 3.78C2.42667 2.67333 3.33333 1.81333 4.48 1.2C5.64 0.573333 6.94 0.26 8.38 0.26C9.59333 0.26 10.6867 0.473333 11.66 0.9C12.6467 1.32667 13.4733 1.94 14.14 2.74L12.06 4.66C11.1133 3.56667 9.94 3.02 8.54 3.02C7.67333 3.02 6.9 3.21333 6.22 3.6C5.54 3.97333 5.00667 4.5 4.62 5.18C4.24667 5.86 4.06 6.63333 4.06 7.5C4.06 8.36667 4.24667 9.14 4.62 9.82C5.00667 10.5 5.54 11.0333 6.22 11.42C6.9 11.7933 7.67333 11.98 8.54 11.98C9.94 11.98 11.1133 11.4267 12.06 10.32L14.14 12.24C13.4733 13.0533 12.6467 13.6733 11.66 14.1C10.6733 14.5267 9.57333 14.74 8.36 14.74ZM20.8569 14.66C19.7235 14.66 18.7035 14.4267 17.7969 13.96C16.9035 13.48 16.2035 12.82 15.6969 11.98C15.1902 11.14 14.9369 10.1867 14.9369 9.12C14.9369 8.05333 15.1902 7.1 15.6969 6.26C16.2035 5.42 16.9035 4.76667 17.7969 4.3C18.7035 3.82 19.7235 3.58 20.8569 3.58C21.9902 3.58 23.0035 3.82 23.8969 4.3C24.7902 4.76667 25.4902 5.42 25.9969 6.26C26.5035 7.1 26.7569 8.05333 26.7569 9.12C26.7569 10.1867 26.5035 11.14 25.9969 11.98C25.4902 12.82 24.7902 13.48 23.8969 13.96C23.0035 14.4267 21.9902 14.66 20.8569 14.66ZM20.8569 12.1C21.6569 12.1 22.3102 11.8333 22.8169 11.3C23.3369 10.7533 23.5969 10.0267 23.5969 9.12C23.5969 8.21333 23.3369 7.49333 22.8169 6.96C22.3102 6.41333 21.6569 6.14 20.8569 6.14C20.0569 6.14 19.3969 6.41333 18.8769 6.96C18.3569 7.49333 18.0969 8.21333 18.0969 9.12C18.0969 10.0267 18.3569 10.7533 18.8769 11.3C19.3969 11.8333 20.0569 12.1 20.8569 12.1ZM42.6223 3.58C43.969 3.58 45.0357 3.98 45.8223 4.78C46.6223 5.56667 47.0223 6.75333 47.0223 8.34V14.5H43.9023V8.82C43.9023 7.96667 43.7223 7.33333 43.3623 6.92C43.0157 6.49333 42.5157 6.28 41.8623 6.28C41.129 6.28 40.549 6.52 40.1223 7C39.6957 7.46667 39.4823 8.16667 39.4823 9.1V14.5H36.3623V8.82C36.3623 7.12667 35.6823 6.28 34.3223 6.28C33.6023 6.28 33.029 6.52 32.6023 7C32.1757 7.46667 31.9623 8.16667 31.9623 9.1V14.5H28.8423V3.74H31.8223V4.98C32.2223 4.52667 32.709 4.18 33.2823 3.94C33.869 3.7 34.509 3.58 35.2023 3.58C35.9623 3.58 36.649 3.73333 37.2623 4.04C37.8757 4.33333 38.369 4.76667 38.7423 5.34C39.1823 4.78 39.7357 4.34667 40.4023 4.04C41.0823 3.73333 41.8223 3.58 42.6223 3.58ZM56.1789 3.58C57.1789 3.58 58.0856 3.81333 58.8989 4.28C59.7256 4.73333 60.3722 5.38 60.8389 6.22C61.3056 7.04667 61.5389 8.01333 61.5389 9.12C61.5389 10.2267 61.3056 11.2 60.8389 12.04C60.3722 12.8667 59.7256 13.5133 58.8989 13.98C58.0856 14.4333 57.1789 14.66 56.1789 14.66C54.8056 14.66 53.7256 14.2267 52.9389 13.36V18.38H49.8189V3.74H52.7989V4.98C53.5722 4.04667 54.6989 3.58 56.1789 3.58ZM55.6389 12.1C56.4389 12.1 57.0922 11.8333 57.5989 11.3C58.1189 10.7533 58.3789 10.0267 58.3789 9.12C58.3789 8.21333 58.1189 7.49333 57.5989 6.96C57.0922 6.41333 56.4389 6.14 55.6389 6.14C54.8389 6.14 54.1789 6.41333 53.6589 6.96C53.1522 7.49333 52.8989 8.21333 52.8989 9.12C52.8989 10.0267 53.1522 10.7533 53.6589 11.3C54.1789 11.8333 54.8389 12.1 55.6389 12.1ZM67.7917 3.58C69.4584 3.58 70.7384 3.98 71.6317 4.78C72.5251 5.56667 72.9717 6.76 72.9717 8.36V14.5H70.0517V13.16C69.4651 14.16 68.3717 14.66 66.7717 14.66C65.9451 14.66 65.2251 14.52 64.6117 14.24C64.0117 13.96 63.5517 13.5733 63.2317 13.08C62.9117 12.5867 62.7517 12.0267 62.7517 11.4C62.7517 10.4 63.1251 9.61333 63.8717 9.04C64.6317 8.46667 65.7984 8.18 67.3717 8.18H69.8517C69.8517 7.5 69.6451 6.98 69.2317 6.62C68.8184 6.24667 68.1984 6.06 67.3717 6.06C66.7984 6.06 66.2317 6.15333 65.6717 6.34C65.1251 6.51333 64.6584 6.75333 64.2717 7.06L63.1517 4.88C63.7384 4.46667 64.4384 4.14667 65.2517 3.92C66.0784 3.69333 66.9251 3.58 67.7917 3.58ZM67.5517 12.56C68.0851 12.56 68.5584 12.44 68.9717 12.2C69.3851 11.9467 69.6784 11.58 69.8517 11.1V10H67.7117C66.4317 10 65.7917 10.42 65.7917 11.26C65.7917 11.66 65.9451 11.98 66.2517 12.22C66.5717 12.4467 67.0051 12.56 67.5517 12.56ZM82.3355 3.58C83.6688 3.58 84.7421 3.98 85.5555 4.78C86.3821 5.58 86.7955 6.76667 86.7955 8.34V14.5H83.6755V8.82C83.6755 7.96667 83.4888 7.33333 83.1155 6.92C82.7421 6.49333 82.2021 6.28 81.4955 6.28C80.7088 6.28 80.0821 6.52667 79.6155 7.02C79.1488 7.5 78.9155 8.22 78.9155 9.18V14.5H75.7955V3.74H78.7755V5C79.1888 4.54667 79.7021 4.2 80.3155 3.96C80.9288 3.70667 81.6021 3.58 82.3355 3.58ZM100.108 3.74L95.2483 15.16C94.7549 16.4 94.1416 17.2733 93.4083 17.78C92.6883 18.2867 91.8149 18.54 90.7883 18.54C90.2283 18.54 89.6749 18.4533 89.1283 18.28C88.5816 18.1067 88.1349 17.8667 87.7883 17.56L88.9283 15.34C89.1683 15.5533 89.4416 15.72 89.7483 15.84C90.0683 15.96 90.3816 16.02 90.6883 16.02C91.1149 16.02 91.4616 15.9133 91.7283 15.7C91.9949 15.5 92.2349 15.16 92.4483 14.68L92.4883 14.58L87.8283 3.74H91.0483L94.0683 11.04L97.1083 3.74H100.108ZM120.105 0.499999V14.5H117.445L110.465 6V14.5H107.265V0.499999H109.945L116.905 9V0.499999H120.105ZM127.538 3.58C129.204 3.58 130.484 3.98 131.378 4.78C132.271 5.56667 132.718 6.76 132.718 8.36V14.5H129.798V13.16C129.211 14.16 128.118 14.66 126.518 14.66C125.691 14.66 124.971 14.52 124.358 14.24C123.758 13.96 123.298 13.5733 122.978 13.08C122.658 12.5867 122.498 12.0267 122.498 11.4C122.498 10.4 122.871 9.61333 123.618 9.04C124.378 8.46667 125.544 8.18 127.118 8.18H129.598C129.598 7.5 129.391 6.98 128.978 6.62C128.564 6.24667 127.944 6.06 127.118 6.06C126.544 6.06 125.978 6.15333 125.418 6.34C124.871 6.51333 124.404 6.75333 124.018 7.06L122.898 4.88C123.484 4.46667 124.184 4.14667 124.998 3.92C125.824 3.69333 126.671 3.58 127.538 3.58ZM127.298 12.56C127.831 12.56 128.304 12.44 128.718 12.2C129.131 11.9467 129.424 11.58 129.598 11.1V10H127.458C126.178 10 125.538 10.42 125.538 11.26C125.538 11.66 125.691 11.98 125.998 12.22C126.318 12.4467 126.751 12.56 127.298 12.56ZM149.322 3.58C150.668 3.58 151.735 3.98 152.522 4.78C153.322 5.56667 153.722 6.75333 153.722 8.34V14.5H150.602V8.82C150.602 7.96667 150.422 7.33333 150.062 6.92C149.715 6.49333 149.215 6.28 148.562 6.28C147.828 6.28 147.248 6.52 146.822 7C146.395 7.46667 146.182 8.16667 146.182 9.1V14.5H143.062V8.82C143.062 7.12667 142.382 6.28 141.022 6.28C140.302 6.28 139.728 6.52 139.302 7C138.875 7.46667 138.662 8.16667 138.662 9.1V14.5H135.542V3.74H138.522V4.98C138.922 4.52667 139.408 4.18 139.982 3.94C140.568 3.7 141.208 3.58 141.902 3.58C142.662 3.58 143.348 3.73333 143.962 4.04C144.575 4.33333 145.068 4.76667 145.442 5.34C145.882 4.78 146.435 4.34667 147.102 4.04C147.782 3.73333 148.522 3.58 149.322 3.58ZM167.175 9.16C167.175 9.2 167.155 9.48 167.115 10H158.975C159.122 10.6667 159.469 11.1933 160.015 11.58C160.562 11.9667 161.242 12.16 162.055 12.16C162.615 12.16 163.109 12.08 163.535 11.92C163.975 11.7467 164.382 11.48 164.755 11.12L166.415 12.92C165.402 14.08 163.922 14.66 161.975 14.66C160.762 14.66 159.689 14.4267 158.755 13.96C157.822 13.48 157.102 12.82 156.595 11.98C156.089 11.14 155.835 10.1867 155.835 9.12C155.835 8.06667 156.082 7.12 156.575 6.28C157.082 5.42667 157.769 4.76667 158.635 4.3C159.515 3.82 160.495 3.58 161.575 3.58C162.629 3.58 163.582 3.80667 164.435 4.26C165.289 4.71333 165.955 5.36667 166.435 6.22C166.929 7.06 167.175 8.04 167.175 9.16ZM161.595 5.94C160.889 5.94 160.295 6.14 159.815 6.54C159.335 6.94 159.042 7.48667 158.935 8.18H164.235C164.129 7.5 163.835 6.96 163.355 6.56C162.875 6.14667 162.289 5.94 161.595 5.94Z" fill="#141720"/>
</svg>
